<svg width="945" height="137" viewBox="0 0 945 137" fill="none" xmlns="http://www.w3.org/2000/svg">
<path d="M160.642 88.575V106H158.367V88.575H160.642ZM171.194 92.05C172.861 92.05 174.211 92.5583 175.244 93.575C176.278 94.575 176.794 96.025 176.794 97.925V106H174.544V98.25C174.544 96.8833 174.203 95.8417 173.519 95.125C172.836 94.3917 171.903 94.025 170.719 94.025C169.519 94.025 168.561 94.4 167.844 95.15C167.144 95.9 166.794 96.9917 166.794 98.425V106H164.519V92.3H166.794V94.25C167.244 93.55 167.853 93.0083 168.619 92.625C169.403 92.2417 170.261 92.05 171.194 92.05ZM179.66 99.1C179.66 97.7 179.944 96.475 180.51 95.425C181.077 94.3583 181.852 93.5333 182.835 92.95C183.835 92.3667 184.952 92.075 186.185 92.075C187.252 92.075 188.244 92.325 189.16 92.825C190.077 93.3083 190.777 93.95 191.26 94.75V87.5H193.56V106H191.26V103.425C190.81 104.242 190.144 104.917 189.26 105.45C188.377 105.967 187.344 106.225 186.16 106.225C184.944 106.225 183.835 105.925 182.835 105.325C181.852 104.725 181.077 103.883 180.51 102.8C179.944 101.717 179.66 100.483 179.66 99.1ZM191.26 99.125C191.26 98.0917 191.052 97.1917 190.635 96.425C190.219 95.6583 189.652 95.075 188.935 94.675C188.235 94.2583 187.46 94.05 186.61 94.05C185.76 94.05 184.985 94.25 184.285 94.65C183.585 95.05 183.027 95.6333 182.61 96.4C182.194 97.1667 181.985 98.0667 181.985 99.1C181.985 100.15 182.194 101.067 182.61 101.85C183.027 102.617 183.585 103.208 184.285 103.625C184.985 104.025 185.76 104.225 186.61 104.225C187.46 104.225 188.235 104.025 188.935 103.625C189.652 103.208 190.219 102.617 190.635 101.85C191.052 101.067 191.26 100.158 191.26 99.125ZM198.58 90.075C198.147 90.075 197.78 89.925 197.48 89.625C197.18 89.325 197.03 88.9583 197.03 88.525C197.03 88.0917 197.18 87.725 197.48 87.425C197.78 87.125 198.147 86.975 198.58 86.975C198.997 86.975 199.347 87.125 199.63 87.425C199.93 87.725 200.08 88.0917 200.08 88.525C200.08 88.9583 199.93 89.325 199.63 89.625C199.347 89.925 198.997 90.075 198.58 90.075ZM199.68 92.3V106H197.405V92.3H199.68ZM202.707 99.1C202.707 97.7 202.991 96.475 203.557 95.425C204.124 94.3583 204.899 93.5333 205.882 92.95C206.882 92.3667 207.991 92.075 209.207 92.075C210.407 92.075 211.449 92.3333 212.332 92.85C213.216 93.3667 213.874 94.0167 214.307 94.8V92.3H216.607V106H214.307V103.45C213.857 104.25 213.182 104.917 212.282 105.45C211.399 105.967 210.366 106.225 209.182 106.225C207.966 106.225 206.866 105.925 205.882 105.325C204.899 104.725 204.124 103.883 203.557 102.8C202.991 101.717 202.707 100.483 202.707 99.1ZM214.307 99.125C214.307 98.0917 214.099 97.1917 213.682 96.425C213.266 95.6583 212.699 95.075 211.982 94.675C211.282 94.2583 210.507 94.05 209.657 94.05C208.807 94.05 208.032 94.25 207.332 94.65C206.632 95.05 206.074 95.6333 205.657 96.4C205.241 97.1667 205.032 98.0667 205.032 99.1C205.032 100.15 205.241 101.067 205.657 101.85C206.074 102.617 206.632 103.208 207.332 103.625C208.032 104.025 208.807 104.225 209.657 104.225C210.507 104.225 211.282 104.025 211.982 103.625C212.699 103.208 213.266 102.617 213.682 101.85C214.099 101.067 214.307 100.158 214.307 99.125ZM220.802 88.575H223.327L220.927 94.25H219.327L220.802 88.575ZM230.771 106.225C229.721 106.225 228.779 106.05 227.946 105.7C227.112 105.333 226.454 104.833 225.971 104.2C225.487 103.55 225.221 102.808 225.171 101.975H227.521C227.587 102.658 227.904 103.217 228.471 103.65C229.054 104.083 229.812 104.3 230.746 104.3C231.612 104.3 232.296 104.108 232.796 103.725C233.296 103.342 233.546 102.858 233.546 102.275C233.546 101.675 233.279 101.233 232.746 100.95C232.212 100.65 231.387 100.358 230.271 100.075C229.254 99.8083 228.421 99.5417 227.771 99.275C227.137 98.9917 226.587 98.5833 226.121 98.05C225.671 97.5 225.446 96.7833 225.446 95.9C225.446 95.2 225.654 94.5583 226.071 93.975C226.487 93.3917 227.079 92.9333 227.846 92.6C228.612 92.25 229.487 92.075 230.471 92.075C231.987 92.075 233.212 92.4583 234.146 93.225C235.079 93.9917 235.579 95.0417 235.646 96.375H233.371C233.321 95.6583 233.029 95.0833 232.496 94.65C231.979 94.2167 231.279 94 230.396 94C229.579 94 228.929 94.175 228.446 94.525C227.962 94.875 227.721 95.3333 227.721 95.9C227.721 96.35 227.862 96.725 228.146 97.025C228.446 97.3083 228.812 97.5417 229.246 97.725C229.696 97.8917 230.312 98.0833 231.096 98.3C232.079 98.5667 232.879 98.8333 233.496 99.1C234.112 99.35 234.637 99.7333 235.071 100.25C235.521 100.767 235.754 101.442 235.771 102.275C235.771 103.025 235.562 103.7 235.146 104.3C234.729 104.9 234.137 105.375 233.371 105.725C232.621 106.058 231.754 106.225 230.771 106.225ZM263.322 88.7V106H261.047V93.1L255.297 106H253.697L247.922 93.075V106H245.647V88.7H248.097L254.497 103L260.897 88.7H263.322ZM273.155 106.225C271.872 106.225 270.705 105.933 269.655 105.35C268.622 104.767 267.805 103.942 267.205 102.875C266.622 101.792 266.33 100.542 266.33 99.125C266.33 97.725 266.63 96.4917 267.23 95.425C267.847 94.3417 268.68 93.5167 269.73 92.95C270.78 92.3667 271.955 92.075 273.255 92.075C274.555 92.075 275.73 92.3667 276.78 92.95C277.83 93.5167 278.655 94.3333 279.255 95.4C279.872 96.4667 280.18 97.7083 280.18 99.125C280.18 100.542 279.864 101.792 279.23 102.875C278.614 103.942 277.772 104.767 276.705 105.35C275.639 105.933 274.455 106.225 273.155 106.225ZM273.155 104.225C273.972 104.225 274.739 104.033 275.455 103.65C276.172 103.267 276.747 102.692 277.18 101.925C277.63 101.158 277.855 100.225 277.855 99.125C277.855 98.025 277.639 97.0917 277.205 96.325C276.772 95.5583 276.205 94.9917 275.505 94.625C274.805 94.2417 274.047 94.05 273.23 94.05C272.397 94.05 271.63 94.2417 270.93 94.625C270.247 94.9917 269.697 95.5583 269.28 96.325C268.864 97.0917 268.655 98.025 268.655 99.125C268.655 100.242 268.855 101.183 269.255 101.95C269.672 102.717 270.222 103.292 270.905 103.675C271.589 104.042 272.339 104.225 273.155 104.225ZM288.022 106.225C286.972 106.225 286.03 106.05 285.197 105.7C284.363 105.333 283.705 104.833 283.222 104.2C282.738 103.55 282.472 102.808 282.422 101.975H284.772C284.838 102.658 285.155 103.217 285.722 103.65C286.305 104.083 287.063 104.3 287.997 104.3C288.863 104.3 289.547 104.108 290.047 103.725C290.547 103.342 290.797 102.858 290.797 102.275C290.797 101.675 290.53 101.233 289.997 100.95C289.463 100.65 288.638 100.358 287.522 100.075C286.505 99.8083 285.672 99.5417 285.022 99.275C284.388 98.9917 283.838 98.5833 283.372 98.05C282.922 97.5 282.697 96.7833 282.697 95.9C282.697 95.2 282.905 94.5583 283.322 93.975C283.738 93.3917 284.33 92.9333 285.097 92.6C285.863 92.25 286.738 92.075 287.722 92.075C289.238 92.075 290.463 92.4583 291.397 93.225C292.33 93.9917 292.83 95.0417 292.897 96.375H290.622C290.572 95.6583 290.28 95.0833 289.747 94.65C289.23 94.2167 288.53 94 287.647 94C286.83 94 286.18 94.175 285.697 94.525C285.213 94.875 284.972 95.3333 284.972 95.9C284.972 96.35 285.113 96.725 285.397 97.025C285.697 97.3083 286.063 97.5417 286.497 97.725C286.947 97.8917 287.563 98.0833 288.347 98.3C289.33 98.5667 290.13 98.8333 290.747 99.1C291.363 99.35 291.888 99.7333 292.322 100.25C292.772 100.767 293.005 101.442 293.022 102.275C293.022 103.025 292.813 103.7 292.397 104.3C291.98 104.9 291.388 105.375 290.622 105.725C289.872 106.058 289.005 106.225 288.022 106.225ZM299.008 94.175V102.25C299.008 102.917 299.15 103.392 299.433 103.675C299.716 103.942 300.208 104.075 300.908 104.075H302.583V106H300.533C299.266 106 298.316 105.708 297.683 105.125C297.05 104.542 296.733 103.583 296.733 102.25V94.175H294.958V92.3H296.733V88.85H299.008V92.3H302.583V94.175H299.008ZM314.28 90.425V96.25H320.63V98.125H314.28V104.125H321.38V106H312.005V88.55H321.38V90.425H314.28ZM331.497 92.05C333.164 92.05 334.514 92.5583 335.547 93.575C336.58 94.575 337.097 96.025 337.097 97.925V106H334.847V98.25C334.847 96.8833 334.505 95.8417 333.822 95.125C333.139 94.3917 332.205 94.025 331.022 94.025C329.822 94.025 328.864 94.4 328.147 95.15C327.447 95.9 327.097 96.9917 327.097 98.425V106H324.822V92.3H327.097V94.25C327.547 93.55 328.155 93.0083 328.922 92.625C329.705 92.2417 330.564 92.05 331.497 92.05ZM339.963 99.1C339.963 97.7 340.247 96.475 340.813 95.425C341.38 94.3583 342.155 93.5333 343.138 92.95C344.138 92.3667 345.255 92.075 346.488 92.075C347.555 92.075 348.547 92.325 349.463 92.825C350.38 93.3083 351.08 93.95 351.563 94.75V87.5H353.863V106H351.563V103.425C351.113 104.242 350.447 104.917 349.563 105.45C348.68 105.967 347.647 106.225 346.463 106.225C345.247 106.225 344.138 105.925 343.138 105.325C342.155 104.725 341.38 103.883 340.813 102.8C340.247 101.717 339.963 100.483 339.963 99.1ZM351.563 99.125C351.563 98.0917 351.355 97.1917 350.938 96.425C350.522 95.6583 349.955 95.075 349.238 94.675C348.538 94.2583 347.763 94.05 346.913 94.05C346.063 94.05 345.288 94.25 344.588 94.65C343.888 95.05 343.33 95.6333 342.913 96.4C342.497 97.1667 342.288 98.0667 342.288 99.1C342.288 100.15 342.497 101.067 342.913 101.85C343.33 102.617 343.888 103.208 344.588 103.625C345.288 104.025 346.063 104.225 346.913 104.225C347.763 104.225 348.538 104.025 349.238 103.625C349.955 103.208 350.522 102.617 350.938 101.85C351.355 101.067 351.563 100.158 351.563 99.125ZM369.858 92.3V106H367.583V103.975C367.149 104.675 366.541 105.225 365.758 105.625C364.991 106.008 364.141 106.2 363.208 106.2C362.141 106.2 361.183 105.983 360.333 105.55C359.483 105.1 358.808 104.433 358.308 103.55C357.824 102.667 357.583 101.592 357.583 100.325V92.3H359.833V100.025C359.833 101.375 360.174 102.417 360.858 103.15C361.541 103.867 362.474 104.225 363.658 104.225C364.874 104.225 365.833 103.85 366.533 103.1C367.233 102.35 367.583 101.258 367.583 99.825V92.3H369.858ZM375.974 94.525C376.374 93.7417 376.941 93.1333 377.674 92.7C378.424 92.2667 379.332 92.05 380.399 92.05V94.4H379.799C377.249 94.4 375.974 95.7833 375.974 98.55V106H373.699V92.3H375.974V94.525ZM384.2 90.075C383.767 90.075 383.4 89.925 383.1 89.625C382.8 89.325 382.65 88.9583 382.65 88.525C382.65 88.0917 382.8 87.725 383.1 87.425C383.4 87.125 383.767 86.975 384.2 86.975C384.617 86.975 384.967 87.125 385.25 87.425C385.55 87.725 385.7 88.0917 385.7 88.525C385.7 88.9583 385.55 89.325 385.25 89.625C384.967 89.925 384.617 90.075 384.2 90.075ZM385.3 92.3V106H383.025V92.3H385.3ZM395.852 92.05C397.519 92.05 398.869 92.5583 399.902 93.575C400.936 94.575 401.452 96.025 401.452 97.925V106H399.202V98.25C399.202 96.8833 398.861 95.8417 398.177 95.125C397.494 94.3917 396.561 94.025 395.377 94.025C394.177 94.025 393.219 94.4 392.502 95.15C391.802 95.9 391.452 96.9917 391.452 98.425V106H389.177V92.3H391.452V94.25C391.902 93.55 392.511 93.0083 393.277 92.625C394.061 92.2417 394.919 92.05 395.852 92.05ZM410.819 92.075C412.002 92.075 413.035 92.3333 413.919 92.85C414.819 93.3667 415.485 94.0167 415.919 94.8V92.3H418.219V106.3C418.219 107.55 417.952 108.658 417.419 109.625C416.885 110.608 416.119 111.375 415.119 111.925C414.135 112.475 412.985 112.75 411.669 112.75C409.869 112.75 408.369 112.325 407.169 111.475C405.969 110.625 405.26 109.467 405.044 108H407.294C407.544 108.833 408.06 109.5 408.844 110C409.627 110.517 410.569 110.775 411.669 110.775C412.919 110.775 413.935 110.383 414.719 109.6C415.519 108.817 415.919 107.717 415.919 106.3V103.425C415.469 104.225 414.802 104.892 413.919 105.425C413.035 105.958 412.002 106.225 410.819 106.225C409.602 106.225 408.494 105.925 407.494 105.325C406.51 104.725 405.735 103.883 405.169 102.8C404.602 101.717 404.319 100.483 404.319 99.1C404.319 97.7 404.602 96.475 405.169 95.425C405.735 94.3583 406.51 93.5333 407.494 92.95C408.494 92.3667 409.602 92.075 410.819 92.075ZM415.919 99.125C415.919 98.0917 415.71 97.1917 415.294 96.425C414.877 95.6583 414.31 95.075 413.594 94.675C412.894 94.2583 412.119 94.05 411.269 94.05C410.419 94.05 409.644 94.25 408.944 94.65C408.244 95.05 407.685 95.6333 407.269 96.4C406.852 97.1667 406.644 98.0667 406.644 99.1C406.644 100.15 406.852 101.067 407.269 101.85C407.685 102.617 408.244 103.208 408.944 103.625C409.644 104.025 410.419 104.225 411.269 104.225C412.119 104.225 412.894 104.025 413.594 103.625C414.31 103.208 414.877 102.617 415.294 101.85C415.71 101.067 415.919 100.158 415.919 99.125ZM437.453 97.025C438.087 97.125 438.662 97.3833 439.178 97.8C439.712 98.2167 440.128 98.7333 440.428 99.35C440.745 99.9667 440.903 100.625 440.903 101.325C440.903 102.208 440.678 103.008 440.228 103.725C439.778 104.425 439.12 104.983 438.253 105.4C437.403 105.8 436.395 106 435.228 106H428.728V88.575H434.978C436.162 88.575 437.17 88.775 438.003 89.175C438.837 89.5583 439.462 90.0833 439.878 90.75C440.295 91.4167 440.503 92.1667 440.503 93C440.503 94.0333 440.22 94.8917 439.653 95.575C439.103 96.2417 438.37 96.725 437.453 97.025ZM431.003 96.1H434.828C435.895 96.1 436.72 95.85 437.303 95.35C437.887 94.85 438.178 94.1583 438.178 93.275C438.178 92.3917 437.887 91.7 437.303 91.2C436.72 90.7 435.878 90.45 434.778 90.45H431.003V96.1ZM435.028 104.125C436.162 104.125 437.045 103.858 437.678 103.325C438.312 102.792 438.628 102.05 438.628 101.1C438.628 100.133 438.295 99.375 437.628 98.825C436.962 98.2583 436.07 97.975 434.953 97.975H431.003V104.125H435.028ZM446.335 94.525C446.735 93.7417 447.302 93.1333 448.035 92.7C448.785 92.2667 449.694 92.05 450.76 92.05V94.4H450.16C447.61 94.4 446.335 95.7833 446.335 98.55V106H444.06V92.3H446.335V94.525ZM454.561 90.075C454.128 90.075 453.761 89.925 453.461 89.625C453.161 89.325 453.011 88.9583 453.011 88.525C453.011 88.0917 453.161 87.725 453.461 87.425C453.761 87.125 454.128 86.975 454.561 86.975C454.978 86.975 455.328 87.125 455.611 87.425C455.911 87.725 456.061 88.0917 456.061 88.525C456.061 88.9583 455.911 89.325 455.611 89.625C455.328 89.925 454.978 90.075 454.561 90.075ZM455.661 92.3V106H453.386V92.3H455.661ZM462.314 94.175V102.25C462.314 102.917 462.455 103.392 462.739 103.675C463.022 103.942 463.514 104.075 464.214 104.075H465.889V106H463.839C462.572 106 461.622 105.708 460.989 105.125C460.355 104.542 460.039 103.583 460.039 102.25V94.175H458.264V92.3H460.039V88.85H462.314V92.3H465.889V94.175H462.314ZM469.82 90.075C469.387 90.075 469.02 89.925 468.72 89.625C468.42 89.325 468.27 88.9583 468.27 88.525C468.27 88.0917 468.42 87.725 468.72 87.425C469.02 87.125 469.387 86.975 469.82 86.975C470.237 86.975 470.587 87.125 470.87 87.425C471.17 87.725 471.32 88.0917 471.32 88.525C471.32 88.9583 471.17 89.325 470.87 89.625C470.587 89.925 470.237 90.075 469.82 90.075ZM470.92 92.3V106H468.645V92.3H470.92ZM479.648 106.225C478.598 106.225 477.656 106.05 476.823 105.7C475.989 105.333 475.331 104.833 474.848 104.2C474.364 103.55 474.098 102.808 474.048 101.975H476.398C476.464 102.658 476.781 103.217 477.348 103.65C477.931 104.083 478.689 104.3 479.623 104.3C480.489 104.3 481.173 104.108 481.673 103.725C482.173 103.342 482.423 102.858 482.423 102.275C482.423 101.675 482.156 101.233 481.623 100.95C481.089 100.65 480.264 100.358 479.148 100.075C478.131 99.8083 477.298 99.5417 476.648 99.275C476.014 98.9917 475.464 98.5833 474.998 98.05C474.548 97.5 474.323 96.7833 474.323 95.9C474.323 95.2 474.531 94.5583 474.948 93.975C475.364 93.3917 475.956 92.9333 476.723 92.6C477.489 92.25 478.364 92.075 479.348 92.075C480.864 92.075 482.089 92.4583 483.023 93.225C483.956 93.9917 484.456 95.0417 484.523 96.375H482.248C482.198 95.6583 481.906 95.0833 481.373 94.65C480.856 94.2167 480.156 94 479.273 94C478.456 94 477.806 94.175 477.323 94.525C476.839 94.875 476.598 95.3333 476.598 95.9C476.598 96.35 476.739 96.725 477.023 97.025C477.323 97.3083 477.689 97.5417 478.123 97.725C478.573 97.8917 479.189 98.0833 479.973 98.3C480.956 98.5667 481.756 98.8333 482.373 99.1C482.989 99.35 483.514 99.7333 483.948 100.25C484.398 100.767 484.631 101.442 484.648 102.275C484.648 103.025 484.439 103.7 484.023 104.3C483.606 104.9 483.014 105.375 482.248 105.725C481.498 106.058 480.631 106.225 479.648 106.225ZM494.659 92.05C495.692 92.05 496.626 92.275 497.459 92.725C498.292 93.1583 498.942 93.8167 499.409 94.7C499.892 95.5833 500.134 96.6583 500.134 97.925V106H497.884V98.25C497.884 96.8833 497.542 95.8417 496.859 95.125C496.176 94.3917 495.242 94.025 494.059 94.025C492.859 94.025 491.901 94.4 491.184 95.15C490.484 95.9 490.134 96.9917 490.134 98.425V106H487.859V87.5H490.134V94.25C490.584 93.55 491.201 93.0083 491.984 92.625C492.784 92.2417 493.676 92.05 494.659 92.05ZM522.165 93.675C522.165 95.125 521.665 96.3333 520.665 97.3C519.682 98.25 518.174 98.725 516.14 98.725H512.79V106H510.515V88.575H516.14C518.107 88.575 519.599 89.05 520.615 90C521.649 90.95 522.165 92.175 522.165 93.675ZM516.14 96.85C517.407 96.85 518.34 96.575 518.94 96.025C519.54 95.475 519.84 94.6917 519.84 93.675C519.84 91.525 518.607 90.45 516.14 90.45H512.79V96.85H516.14ZM537.143 92.3V106H534.868V103.975C534.435 104.675 533.826 105.225 533.043 105.625C532.276 106.008 531.426 106.2 530.493 106.2C529.426 106.2 528.468 105.983 527.618 105.55C526.768 105.1 526.093 104.433 525.593 103.55C525.11 102.667 524.868 101.592 524.868 100.325V92.3H527.118V100.025C527.118 101.375 527.46 102.417 528.143 103.15C528.826 103.867 529.76 104.225 530.943 104.225C532.16 104.225 533.118 103.85 533.818 103.1C534.518 102.35 534.868 101.258 534.868 99.825V92.3H537.143ZM543.259 94.85C543.726 94.0333 544.409 93.3667 545.309 92.85C546.209 92.3333 547.234 92.075 548.384 92.075C549.617 92.075 550.726 92.3667 551.709 92.95C552.692 93.5333 553.467 94.3583 554.034 95.425C554.601 96.475 554.884 97.7 554.884 99.1C554.884 100.483 554.601 101.717 554.034 102.8C553.467 103.883 552.684 104.725 551.684 105.325C550.701 105.925 549.601 106.225 548.384 106.225C547.201 106.225 546.159 105.967 545.259 105.45C544.376 104.933 543.709 104.275 543.259 103.475V106H540.984V87.5H543.259V94.85ZM552.559 99.1C552.559 98.0667 552.351 97.1667 551.934 96.4C551.517 95.6333 550.951 95.05 550.234 94.65C549.534 94.25 548.759 94.05 547.909 94.05C547.076 94.05 546.301 94.2583 545.584 94.675C544.884 95.075 544.317 95.6667 543.884 96.45C543.467 97.2167 543.259 98.1083 543.259 99.125C543.259 100.158 543.467 101.067 543.884 101.85C544.317 102.617 544.884 103.208 545.584 103.625C546.301 104.025 547.076 104.225 547.909 104.225C548.759 104.225 549.534 104.025 550.234 103.625C550.951 103.208 551.517 102.617 551.934 101.85C552.351 101.067 552.559 100.15 552.559 99.1ZM573.269 97.025C573.902 97.125 574.477 97.3833 574.994 97.8C575.527 98.2167 575.944 98.7333 576.244 99.35C576.56 99.9667 576.719 100.625 576.719 101.325C576.719 102.208 576.494 103.008 576.044 103.725C575.594 104.425 574.935 104.983 574.069 105.4C573.219 105.8 572.21 106 571.044 106H564.544V88.575H570.794C571.977 88.575 572.985 88.775 573.819 89.175C574.652 89.5583 575.277 90.0833 575.694 90.75C576.11 91.4167 576.319 92.1667 576.319 93C576.319 94.0333 576.035 94.8917 575.469 95.575C574.919 96.2417 574.185 96.725 573.269 97.025ZM566.819 96.1H570.644C571.71 96.1 572.535 95.85 573.119 95.35C573.702 94.85 573.994 94.1583 573.994 93.275C573.994 92.3917 573.702 91.7 573.119 91.2C572.535 90.7 571.694 90.45 570.594 90.45H566.819V96.1ZM570.844 104.125C571.977 104.125 572.86 103.858 573.494 103.325C574.127 102.792 574.444 102.05 574.444 101.1C574.444 100.133 574.11 99.375 573.444 98.825C572.777 98.2583 571.885 97.975 570.769 97.975H566.819V104.125H570.844ZM582.151 94.525C582.551 93.7417 583.117 93.1333 583.851 92.7C584.601 92.2667 585.509 92.05 586.576 92.05V94.4H585.976C583.426 94.4 582.151 95.7833 582.151 98.55V106H579.876V92.3H582.151V94.525ZM588.352 99.1C588.352 97.7 588.635 96.475 589.202 95.425C589.769 94.3583 590.544 93.5333 591.527 92.95C592.527 92.3667 593.635 92.075 594.852 92.075C596.052 92.075 597.094 92.3333 597.977 92.85C598.86 93.3667 599.519 94.0167 599.952 94.8V92.3H602.252V106H599.952V103.45C599.502 104.25 598.827 104.917 597.927 105.45C597.044 105.967 596.01 106.225 594.827 106.225C593.61 106.225 592.51 105.925 591.527 105.325C590.544 104.725 589.769 103.883 589.202 102.8C588.635 101.717 588.352 100.483 588.352 99.1ZM599.952 99.125C599.952 98.0917 599.744 97.1917 599.327 96.425C598.91 95.6583 598.344 95.075 597.627 94.675C596.927 94.2583 596.152 94.05 595.302 94.05C594.452 94.05 593.677 94.25 592.977 94.65C592.277 95.05 591.719 95.6333 591.302 96.4C590.885 97.1667 590.677 98.0667 590.677 99.1C590.677 100.15 590.885 101.067 591.302 101.85C591.719 102.617 592.277 103.208 592.977 103.625C593.677 104.025 594.452 104.225 595.302 104.225C596.152 104.225 596.927 104.025 597.627 103.625C598.344 103.208 598.91 102.617 599.327 101.85C599.744 101.067 599.952 100.158 599.952 99.125ZM612.771 92.05C614.438 92.05 615.788 92.5583 616.821 93.575C617.855 94.575 618.371 96.025 618.371 97.925V106H616.121V98.25C616.121 96.8833 615.78 95.8417 615.096 95.125C614.413 94.3917 613.48 94.025 612.296 94.025C611.096 94.025 610.138 94.4 609.421 95.15C608.721 95.9 608.371 96.9917 608.371 98.425V106H606.096V92.3H608.371V94.25C608.821 93.55 609.43 93.0083 610.196 92.625C610.98 92.2417 611.838 92.05 612.771 92.05ZM621.238 99.1C621.238 97.7 621.521 96.475 622.088 95.425C622.654 94.3583 623.429 93.5333 624.413 92.95C625.413 92.3667 626.529 92.075 627.763 92.075C628.829 92.075 629.821 92.325 630.738 92.825C631.654 93.3083 632.354 93.95 632.838 94.75V87.5H635.138V106H632.838V103.425C632.388 104.242 631.721 104.917 630.838 105.45C629.954 105.967 628.921 106.225 627.738 106.225C626.521 106.225 625.413 105.925 624.413 105.325C623.429 104.725 622.654 103.883 622.088 102.8C621.521 101.717 621.238 100.483 621.238 99.1ZM632.838 99.125C632.838 98.0917 632.629 97.1917 632.213 96.425C631.796 95.6583 631.229 95.075 630.513 94.675C629.813 94.2583 629.038 94.05 628.188 94.05C627.338 94.05 626.563 94.25 625.863 94.65C625.163 95.05 624.604 95.6333 624.188 96.4C623.771 97.1667 623.563 98.0667 623.563 99.1C623.563 100.15 623.771 101.067 624.188 101.85C624.604 102.617 625.163 103.208 625.863 103.625C626.563 104.025 627.338 104.225 628.188 104.225C629.038 104.225 629.813 104.025 630.513 103.625C631.229 103.208 631.796 102.617 632.213 101.85C632.629 101.067 632.838 100.158 632.838 99.125ZM663.947 95.875V97.8H645.622V95.875H663.947Z" fill="white"/>
<path d="M679.956 106.175C678.806 106.175 677.773 105.975 676.856 105.575C675.956 105.158 675.248 104.592 674.731 103.875C674.215 103.142 673.948 102.3 673.931 101.35H676.356C676.44 102.167 676.773 102.858 677.356 103.425C677.956 103.975 678.823 104.25 679.956 104.25C681.04 104.25 681.89 103.983 682.506 103.45C683.14 102.9 683.456 102.2 683.456 101.35C683.456 100.683 683.273 100.142 682.906 99.725C682.54 99.3083 682.081 98.9917 681.531 98.775C680.981 98.5583 680.24 98.325 679.306 98.075C678.156 97.775 677.231 97.475 676.531 97.175C675.848 96.875 675.256 96.4083 674.756 95.775C674.273 95.125 674.031 94.2583 674.031 93.175C674.031 92.225 674.273 91.3833 674.756 90.65C675.24 89.9167 675.915 89.35 676.781 88.95C677.665 88.55 678.673 88.35 679.806 88.35C681.44 88.35 682.773 88.7583 683.806 89.575C684.856 90.3917 685.448 91.475 685.581 92.825H683.081C682.998 92.1583 682.648 91.575 682.031 91.075C681.415 90.5583 680.598 90.3 679.581 90.3C678.631 90.3 677.856 90.55 677.256 91.05C676.656 91.5333 676.356 92.2167 676.356 93.1C676.356 93.7333 676.531 94.25 676.881 94.65C677.248 95.05 677.69 95.3583 678.206 95.575C678.74 95.775 679.481 96.0083 680.431 96.275C681.581 96.5917 682.506 96.9083 683.206 97.225C683.906 97.525 684.506 98 685.006 98.65C685.506 99.2833 685.756 100.15 685.756 101.25C685.756 102.1 685.531 102.9 685.081 103.65C684.631 104.4 683.965 105.008 683.081 105.475C682.198 105.942 681.156 106.175 679.956 106.175ZM690.279 90.075C689.846 90.075 689.479 89.925 689.179 89.625C688.879 89.325 688.729 88.9583 688.729 88.525C688.729 88.0917 688.879 87.725 689.179 87.425C689.479 87.125 689.846 86.975 690.279 86.975C690.696 86.975 691.046 87.125 691.329 87.425C691.629 87.725 691.779 88.0917 691.779 88.525C691.779 88.9583 691.629 89.325 691.329 89.625C691.046 89.925 690.696 90.075 690.279 90.075ZM691.379 92.3V106H689.104V92.3H691.379ZM701.932 92.05C703.598 92.05 704.948 92.5583 705.982 93.575C707.015 94.575 707.532 96.025 707.532 97.925V106H705.282V98.25C705.282 96.8833 704.94 95.8417 704.257 95.125C703.573 94.3917 702.64 94.025 701.457 94.025C700.257 94.025 699.298 94.4 698.582 95.15C697.882 95.9 697.532 96.9917 697.532 98.425V106H695.257V92.3H697.532V94.25C697.982 93.55 698.59 93.0083 699.357 92.625C700.14 92.2417 700.998 92.05 701.932 92.05ZM710.398 99.125C710.398 97.7083 710.681 96.475 711.248 95.425C711.814 94.3583 712.598 93.5333 713.598 92.95C714.614 92.3667 715.773 92.075 717.073 92.075C718.756 92.075 720.139 92.4833 721.223 93.3C722.323 94.1167 723.048 95.25 723.398 96.7H720.948C720.714 95.8667 720.256 95.2083 719.573 94.725C718.906 94.2417 718.073 94 717.073 94C715.773 94 714.723 94.45 713.923 95.35C713.123 96.2333 712.723 97.4917 712.723 99.125C712.723 100.775 713.123 102.05 713.923 102.95C714.723 103.85 715.773 104.3 717.073 104.3C718.073 104.3 718.906 104.067 719.573 103.6C720.239 103.133 720.698 102.467 720.948 101.6H723.398C723.031 103 722.298 104.125 721.198 104.975C720.098 105.808 718.723 106.225 717.073 106.225C715.773 106.225 714.614 105.933 713.598 105.35C712.598 104.767 711.814 103.942 711.248 102.875C710.681 101.808 710.398 100.558 710.398 99.125ZM738.933 98.625C738.933 99.0583 738.908 99.5167 738.858 100H727.908C727.992 101.35 728.45 102.408 729.283 103.175C730.133 103.925 731.158 104.3 732.358 104.3C733.342 104.3 734.158 104.075 734.808 103.625C735.475 103.158 735.942 102.542 736.208 101.775H738.658C738.292 103.092 737.558 104.167 736.458 105C735.358 105.817 733.992 106.225 732.358 106.225C731.058 106.225 729.892 105.933 728.858 105.35C727.842 104.767 727.042 103.942 726.458 102.875C725.875 101.792 725.583 100.542 725.583 99.125C725.583 97.7083 725.867 96.4667 726.433 95.4C727 94.3333 727.792 93.5167 728.808 92.95C729.842 92.3667 731.025 92.075 732.358 92.075C733.658 92.075 734.808 92.3583 735.808 92.925C736.808 93.4917 737.575 94.275 738.108 95.275C738.658 96.2583 738.933 97.375 738.933 98.625ZM736.583 98.15C736.583 97.2833 736.392 96.5417 736.008 95.925C735.625 95.2917 735.1 94.8167 734.433 94.5C733.783 94.1667 733.058 94 732.258 94C731.108 94 730.125 94.3667 729.308 95.1C728.508 95.8333 728.05 96.85 727.933 98.15H736.583ZM747.626 90V87.925H752.326V106H750.026V90H747.626ZM759.159 101.15C759.326 102.1 759.709 102.833 760.309 103.35C760.926 103.867 761.751 104.125 762.784 104.125C764.167 104.125 765.184 103.583 765.834 102.5C766.501 101.417 766.817 99.5917 766.784 97.025C766.434 97.775 765.851 98.3667 765.034 98.8C764.217 99.2167 763.309 99.425 762.309 99.425C761.192 99.425 760.192 99.2 759.309 98.75C758.442 98.2833 757.759 97.6083 757.259 96.725C756.759 95.8417 756.509 94.775 756.509 93.525C756.509 91.7417 757.026 90.3083 758.059 89.225C759.092 88.125 760.559 87.575 762.459 87.575C764.792 87.575 766.426 88.3333 767.359 89.85C768.309 91.3667 768.784 93.625 768.784 96.625C768.784 98.725 768.592 100.458 768.209 101.825C767.842 103.192 767.209 104.233 766.309 104.95C765.426 105.667 764.209 106.025 762.659 106.025C760.959 106.025 759.634 105.567 758.684 104.65C757.734 103.733 757.192 102.567 757.059 101.15H759.159ZM762.684 97.5C763.801 97.5 764.717 97.1583 765.434 96.475C766.151 95.775 766.509 94.8333 766.509 93.65C766.509 92.4 766.159 91.3917 765.459 90.625C764.759 89.8583 763.776 89.475 762.509 89.475C761.342 89.475 760.409 89.8417 759.709 90.575C759.026 91.3083 758.684 92.275 758.684 93.475C758.684 94.6917 759.026 95.6667 759.709 96.4C760.392 97.1333 761.384 97.5 762.684 97.5ZM774.906 101.15C775.073 102.1 775.456 102.833 776.056 103.35C776.673 103.867 777.498 104.125 778.531 104.125C779.914 104.125 780.931 103.583 781.581 102.5C782.248 101.417 782.564 99.5917 782.531 97.025C782.181 97.775 781.598 98.3667 780.781 98.8C779.964 99.2167 779.056 99.425 778.056 99.425C776.939 99.425 775.939 99.2 775.056 98.75C774.189 98.2833 773.506 97.6083 773.006 96.725C772.506 95.8417 772.256 94.775 772.256 93.525C772.256 91.7417 772.773 90.3083 773.806 89.225C774.839 88.125 776.306 87.575 778.206 87.575C780.539 87.575 782.173 88.3333 783.106 89.85C784.056 91.3667 784.531 93.625 784.531 96.625C784.531 98.725 784.339 100.458 783.956 101.825C783.589 103.192 782.956 104.233 782.056 104.95C781.173 105.667 779.956 106.025 778.406 106.025C776.706 106.025 775.381 105.567 774.431 104.65C773.481 103.733 772.939 102.567 772.806 101.15H774.906ZM778.431 97.5C779.548 97.5 780.464 97.1583 781.181 96.475C781.898 95.775 782.256 94.8333 782.256 93.65C782.256 92.4 781.906 91.3917 781.206 90.625C780.506 89.8583 779.523 89.475 778.256 89.475C777.089 89.475 776.156 89.8417 775.456 90.575C774.773 91.3083 774.431 92.275 774.431 93.475C774.431 94.6917 774.773 95.6667 775.456 96.4C776.139 97.1333 777.131 97.5 778.431 97.5ZM787.453 104.175C789.57 102.475 791.228 101.083 792.428 100C793.628 98.9 794.637 97.7583 795.453 96.575C796.287 95.375 796.703 94.2 796.703 93.05C796.703 91.9667 796.437 91.1167 795.903 90.5C795.387 89.8667 794.545 89.55 793.378 89.55C792.245 89.55 791.362 89.9083 790.728 90.625C790.112 91.325 789.778 92.2667 789.728 93.45H787.528C787.595 91.5833 788.162 90.1417 789.228 89.125C790.295 88.1083 791.67 87.6 793.353 87.6C795.07 87.6 796.428 88.075 797.428 89.025C798.445 89.975 798.953 91.2833 798.953 92.95C798.953 94.3333 798.537 95.6833 797.703 97C796.887 98.3 795.953 99.45 794.903 100.45C793.853 101.433 792.512 102.583 790.878 103.9H799.478V105.8H787.453V104.175Z" fill="#FADDA1"/>
<path d="M36.8294 6.52H25.3894V32.28H32.6694C38.2694 32.28 41.8694 29.24 42.2694 27.72V38.28C41.8694 36.76 38.2694 33.72 32.6694 33.72H25.3894V52.92C25.3894 57.56 26.9094 60.6 28.4294 61H14.8294C16.3494 60.6 17.8694 57.56 17.8694 52.92V13.08C17.8694 8.44 16.3494 5.4 14.8294 5H50.7494V6.52L51.7094 17.56C50.1094 11.56 44.9094 6.52 36.8294 6.52ZM85.9325 61C86.4925 60.84 86.7325 60.28 86.7325 59.48C86.7325 58.28 86.1725 56.36 85.1325 54.28L76.7325 37.88H66.0925V52.92C66.0925 57.56 67.6125 60.6 69.1325 61H55.5325C57.0525 60.6 58.5725 57.56 58.5725 52.92V13.08C58.5725 8.44 57.0525 5.4 55.5325 5H76.4925C90.0125 5 96.7325 13.16 96.7325 21.32C96.7325 27.8 92.5725 34.28 84.2525 36.76L93.2925 53.96C94.8125 56.84 98.0925 60.44 100.253 61H85.9325ZM66.0925 36.36H76.0125C74.0925 32.6 72.1725 29.72 70.5725 29.32H80.3325L83.0525 34.44C87.1325 31.72 89.2125 26.52 89.2125 21.32C89.2125 13.88 85.0525 6.52 76.4925 6.52H66.0925V36.36ZM136.178 61C137.138 60.76 137.858 59.4 137.858 57.32C137.858 56.36 137.698 55.24 137.298 53.96L133.138 40.76H114.658C113.378 44.68 112.578 48.84 112.578 52.44C112.578 56.36 113.538 59.64 115.938 61H101.858C105.218 60.12 108.098 54.68 112.738 40.76L122.978 9.4C121.858 6.92 120.338 5.32 119.138 5H130.178L145.298 53.96C146.578 57.96 148.658 60.6 150.258 61H136.178ZM115.138 39.24H132.658L124.018 12.04L115.138 39.24ZM192.324 56.2C194.004 58.44 196.084 60.6 197.684 61H186.404L159.444 17.16V40.76C159.444 49.08 159.844 58.36 165.124 61H152.084C156.644 58.36 157.844 48.28 157.844 40.76V14.52L156.324 12.04C154.084 8.52 152.484 5.4 150.884 5H160.644L190.724 53.8V25.24C190.724 16.92 190.244 7.64 184.964 5H198.004C193.524 7.64 192.324 17.72 192.324 25.24V56.2ZM246.11 50.44L246.91 50.84C242.91 57.16 235.95 61 228.43 61C210.43 61 201.63 46.68 201.63 32.52C201.63 18.52 210.19 4.68 227.15 4.68C234.19 4.68 241.79 7.08 245.95 11.24V25.48C242.51 12.84 232.59 7.16 223.15 7.16C211.31 7.16 206.03 16.12 206.03 26.36C206.03 40.28 215.79 56.68 232.51 56.68C238.27 56.68 243.95 53.72 246.11 50.44ZM291.135 52.92C291.135 57.56 292.655 60.6 294.175 61H280.575C282.095 60.6 283.615 57.56 283.615 52.92V33.72H262.655V52.92C262.655 57.56 264.175 60.6 265.695 61H252.095C253.615 60.6 255.135 57.56 255.135 52.92V13.08C255.135 8.44 253.615 5.4 252.095 5H265.695C264.175 5.4 262.655 8.44 262.655 13.08V32.28H283.615V13.08C283.615 8.44 282.095 5.4 280.575 5H294.175C292.655 5.4 291.135 8.44 291.135 13.08V52.92ZM310.233 52.92C310.233 57.56 311.753 60.6 313.273 61H299.673C301.193 60.6 302.713 57.56 302.713 52.92V13.08C302.713 8.44 301.193 5.4 299.673 5H313.273C311.753 5.4 310.233 8.44 310.233 13.08V52.92ZM327.856 14.12C327.056 30.44 357.696 28.36 357.696 47.48C357.696 56.6 348.656 61.08 339.216 61.08C329.056 61.08 318.496 55.8 318.496 45.4C320.496 53 328.256 56.84 335.456 57.16C342.576 57.4 350.176 54.2 350.176 47.24C350.176 33.32 320.176 33.8 320.176 16.68C320.176 8.12 327.616 4.84 335.856 4.84C342.736 4.84 350.176 7.16 354.176 11.16V26.44C350.496 12.84 341.856 6.04 335.456 6.04C331.296 6.04 328.096 8.92 327.856 14.12ZM385.345 59.48C393.425 59.48 398.625 54.44 400.225 48.44L399.265 59.48V61H363.345C364.865 60.6 366.385 57.56 366.385 52.92V13.08C366.385 8.44 364.865 5.4 363.345 5H399.265V6.52L400.225 17.56C398.625 11.56 393.425 6.52 385.345 6.52H373.905V32.28H381.185C386.785 32.28 390.385 29.24 390.785 27.72V38.28C390.385 36.76 386.785 33.72 381.185 33.72H373.905V59.48H385.345ZM450.247 5C465.527 5 474.407 20.28 474.407 34.92C474.407 48.28 466.967 61 450.247 61C434.167 61 425.927 46.76 425.927 32.6C425.927 18.76 433.847 5 450.247 5ZM455.927 57.64C466.007 57.64 470.087 50.44 470.087 41.48C470.087 27.32 459.927 8.92 444.807 8.92C434.887 8.92 430.567 16.76 430.567 26.12C430.567 40.12 440.247 57.64 455.927 57.64ZM500.164 5C513.764 5 520.804 14.12 520.804 23.16C520.804 32.04 514.004 40.84 500.164 40.84H489.764V52.92C489.764 57.56 491.284 60.6 492.804 61H479.204C480.724 60.6 482.244 57.56 482.244 52.92V13.08C482.244 8.44 480.724 5.4 479.204 5H500.164ZM500.164 39.32C508.964 39.32 513.284 31.24 513.284 23.08C513.284 14.84 508.804 6.52 500.164 6.52H489.764V39.32H500.164ZM546.336 5C559.936 5 566.976 14.12 566.976 23.16C566.976 32.04 560.176 40.84 546.336 40.84H535.936V52.92C535.936 57.56 537.456 60.6 538.976 61H525.376C526.896 60.6 528.416 57.56 528.416 52.92V13.08C528.416 8.44 526.896 5.4 525.376 5H546.336ZM546.336 39.32C555.136 39.32 559.456 31.24 559.456 23.08C559.456 14.84 554.976 6.52 546.336 6.52H535.936V39.32H546.336ZM596.028 5C611.308 5 620.188 20.28 620.188 34.92C620.188 48.28 612.748 61 596.028 61C579.948 61 571.708 46.76 571.708 32.6C571.708 18.76 579.628 5 596.028 5ZM601.708 57.64C611.788 57.64 615.868 50.44 615.868 41.48C615.868 27.32 605.708 8.92 590.588 8.92C580.668 8.92 576.348 16.76 576.348 26.12C576.348 40.12 586.028 57.64 601.708 57.64ZM655.386 61C655.946 60.84 656.186 60.28 656.186 59.48C656.186 58.28 655.626 56.36 654.586 54.28L646.186 37.88H635.546V52.92C635.546 57.56 637.066 60.6 638.586 61H624.986C626.506 60.6 628.026 57.56 628.026 52.92V13.08C628.026 8.44 626.506 5.4 624.986 5H645.946C659.466 5 666.186 13.16 666.186 21.32C666.186 27.8 662.026 34.28 653.706 36.76L662.746 53.96C664.266 56.84 667.546 60.44 669.706 61H655.386ZM635.546 36.36H645.466C643.546 32.6 641.626 29.72 640.026 29.32H649.786L652.506 34.44C656.586 31.72 658.666 26.52 658.666 21.32C658.666 13.88 654.506 6.52 645.946 6.52H635.546V36.36ZM717.429 6.52L718.469 17.56C716.869 11.56 711.669 6.52 703.509 6.52H698.709V52.92C698.709 57.56 700.229 60.6 701.669 61H688.069C689.589 60.6 691.109 57.56 691.109 52.92V6.52H686.309C678.149 6.52 672.949 11.56 671.349 17.56L672.389 6.52V5H717.429V6.52ZM754.015 5H767.055C762.495 7.64 761.295 17.72 761.295 25.24V45.64C761.295 55.88 752.175 61 743.055 61C733.935 61 724.735 55.88 724.735 45.64V13.08C724.735 8.44 723.215 5.4 721.695 5H735.295C733.775 5.4 732.255 8.44 732.255 13.08V45.64C732.255 54.2 739.055 58.44 745.855 58.44C752.735 58.44 759.695 54.12 759.695 45.64V25.24C759.695 16.92 759.295 7.64 754.015 5ZM810.761 56.2C812.441 58.44 814.521 60.6 816.121 61H804.841L777.881 17.16V40.76C777.881 49.08 778.281 58.36 783.561 61H770.521C775.081 58.36 776.281 48.28 776.281 40.76V14.52L774.761 12.04C772.521 8.52 770.921 5.4 769.321 5H779.081L809.161 53.8V25.24C809.161 16.92 808.681 7.64 803.401 5H816.441C811.961 7.64 810.761 17.72 810.761 25.24V56.2ZM831.327 52.92C831.327 57.56 832.847 60.6 834.367 61H820.767C822.287 60.6 823.807 57.56 823.807 52.92V13.08C823.807 8.44 822.287 5.4 820.767 5H834.367C832.847 5.4 831.327 8.44 831.327 13.08V52.92ZM884.069 6.52L885.109 17.56C883.509 11.56 878.309 6.52 870.149 6.52H865.349V52.92C865.349 57.56 866.869 60.6 868.309 61H854.709C856.229 60.6 857.749 57.56 857.749 52.92V6.52H852.949C844.789 6.52 839.589 11.56 837.989 17.56L839.029 6.52V5H884.069V6.52ZM919.658 5H933.818C928.698 6.36 922.058 18.44 919.418 25.24L913.658 39.88L913.578 57.24C913.578 59.08 914.858 60.6 916.618 61H903.018C904.778 60.6 905.978 59.08 905.978 57.32L906.058 39.88L893.178 12.04C891.418 8.28 888.378 5.4 886.778 5H900.858C900.218 5.16 899.898 5.88 899.898 6.92C899.898 8.2 900.378 9.96 901.258 12.04L912.778 37.88L917.498 25.24C919.178 20.76 921.818 14.52 921.818 9.72C921.818 7.56 921.258 5.88 919.658 5Z" fill="url(#paint0_linear_6012_18)"/>
<defs>
<linearGradient id="paint0_linear_6012_18" x1="339.562" y1="-24.6035" x2="395.132" y2="184.621" gradientUnits="userSpaceOnUse">
<stop stop-color="#C8A65C"/>
<stop offset="0.456731" stop-color="#FFE3A8"/>
<stop offset="0.807458" stop-color="#C8A65C"/>
</linearGradient>
</defs>
</svg>
