<svg width="1372" height="3077" viewBox="0 0 1372 3077" fill="none" xmlns="http://www.w3.org/2000/svg">
<path d="M1331.98 432.93L1372 3000C1372 3077 1325.57 3077 1268.3 3077H129.369C72.0995 3077 25.6733 3077 25.6733 3000V289H106.142C117.404 289 127.563 286.72 134.745 283.064C141.928 286.72 152.087 289 163.348 289H257.694C279.445 289 297.07 280.496 297.07 270V101.327H1231.39C1331.98 101.327 1331.98 138.824 1331.98 289V432.93ZM102.473 5.32427C99.3382 0.520159 92.9908 -1.31359 87.6199 1.00511C55.6307 14.8719 31.879 35.725 17.042 62.9281C5.57568 83.5994 0 115.197 0 159.526V237.134C0 243.408 5.29216 248.5 11.8129 248.5H106.158C112.679 248.5 117.971 243.408 117.971 237.134V138.824C117.971 132.55 112.679 127.458 106.158 127.458H72.72C74.3738 107.908 78.3743 92.6924 84.643 82.1445C91.8568 70.0054 102.945 61.0489 118.538 54.7748C121.735 53.4866 124.193 50.9103 125.248 47.7277C126.303 44.5452 125.831 41.0747 123.988 38.2407L102.473 5.32427ZM275.523 38.2407L254.008 5.32427C250.874 0.520159 244.526 -1.32875 239.155 1.00511C207.166 14.8719 183.414 35.725 168.577 62.9281C157.111 83.5994 151.535 115.197 151.535 159.526V237.134C151.535 243.408 156.828 248.5 163.348 248.5H257.694C264.214 248.5 269.506 243.408 269.506 237.134V138.824C269.506 132.55 264.214 127.458 257.694 127.458H224.255C225.909 107.908 229.91 92.6924 236.178 82.1445C243.392 70.0054 254.48 61.0489 270.073 54.7748C273.271 53.4866 275.728 50.9103 276.783 47.7277C277.838 44.5452 277.366 41.0747 275.523 38.2407Z" fill="white" fill-opacity="0.1" stroke="rgba(255,255,255,0.18)" stroke-width="1.5"/>
</svg>
