<svg width="948" height="3680" viewBox="0 0 948 3680" fill="none" xmlns="http://www.w3.org/2000/svg">
<path d="M920.351 517.771L948 3587.91C948 3680 915.921 3680 876.35 3680H89.3893C49.818 3680 17.7392 3680 17.7392 3587.91V345.635H73.3404C81.1218 345.635 88.1413 342.909 93.1039 338.537C98.0665 342.909 105.086 345.635 112.867 345.635H178.056C193.086 345.635 205.264 335.464 205.264 322.912V121.184H850.841C920.351 121.184 920.351 166.029 920.351 345.635V517.771ZM70.8047 6.36766C68.639 0.622094 64.2531 -1.57102 60.542 1.20208C38.4387 17.7863 22.0272 42.7261 11.7754 75.2601C3.85258 99.9824 0 137.773 0 190.788V283.605C0 291.109 3.65668 297.199 8.16224 297.199H73.3513C77.8569 297.199 81.5136 291.109 81.5136 283.605V166.029C81.5136 158.526 77.8569 152.436 73.3513 152.436H50.2468C51.3895 129.055 54.1537 110.857 58.4851 98.2424C63.4695 83.7244 71.1312 73.0126 81.9053 65.509C84.1146 63.9684 85.8123 60.8871 86.5415 57.0809C87.2706 53.2747 86.9442 49.1241 85.6709 45.7348L70.8047 6.36766ZM190.376 45.7348L175.51 6.36766C173.344 0.622094 168.958 -1.58914 165.247 1.20208C143.144 17.7863 126.732 42.7261 116.481 75.2601C108.558 99.9824 104.705 137.773 104.705 190.788V283.605C104.705 291.109 108.362 297.199 112.867 297.199H178.056C182.562 297.199 186.219 291.109 186.219 283.605V166.029C186.219 158.526 182.562 152.436 178.056 152.436H154.952C156.095 129.055 158.859 110.857 163.19 98.2424C168.175 83.7244 175.836 73.0126 186.611 65.509C188.82 63.9684 190.518 60.8871 191.247 57.0809C191.976 53.2747 191.649 49.1241 190.376 45.7348Z" fill="white" fill-opacity="0.1" stroke="rgba(255,255,255,0.18)" stroke-width="1.5"/>
</svg>
