<svg width="1332" height="666" viewBox="0 0 1332 666" fill="none" xmlns="http://www.w3.org/2000/svg">
<path d="M1331.98 231.503V575.785C1331.98 625.609 1286.94 666 1231.37 666H126.287C70.7196 666 25.6733 625.609 25.6733 575.785V256.274H106.142C117.404 256.274 127.563 252.037 134.745 245.244C141.928 252.037 152.087 256.274 163.348 256.274H257.694C279.445 256.274 297.07 240.471 297.07 220.967V141.287H1231.39C1286.95 141.287 1332 181.678 1332 231.503H1331.98ZM102.473 4.96161C99.3382 0.484728 92.9908 -1.22412 87.6199 0.936644C55.6307 13.8589 31.879 33.2916 17.042 58.6418C5.57568 77.9051 0 107.351 0 148.659V220.982C0 226.828 5.29216 231.574 11.8129 231.574H106.158C112.679 231.574 117.971 226.828 117.971 220.982V129.368C117.971 123.521 112.679 118.776 106.158 118.776H72.72C74.3738 100.558 78.3744 86.3786 84.643 76.5493C91.8568 65.237 102.945 56.8906 118.538 51.0438C121.735 49.8434 124.193 47.4425 125.248 44.4768C126.303 41.511 125.831 38.2769 123.988 35.636L102.473 4.96161ZM275.523 35.636L254.008 4.96161C250.874 0.484728 244.526 -1.23824 239.155 0.936644C207.166 13.8589 183.414 33.2916 168.577 58.6418C157.111 77.9051 151.535 107.351 151.535 148.659V220.982C151.535 226.828 156.828 231.574 163.348 231.574H257.694C264.214 231.574 269.506 226.828 269.506 220.982V129.368C269.506 123.521 264.214 118.776 257.694 118.776H224.255C225.909 100.558 229.91 86.3786 236.178 76.5493C243.392 65.237 254.48 56.8906 270.073 51.0438C273.271 49.8434 275.728 47.4425 276.783 44.4768C277.838 41.511 277.366 38.2769 275.523 35.636Z" fill="white" fill-opacity="0.1"/>
</svg>
