<svg width="1332" height="666" viewBox="0 0 1332 666" fill="none" xmlns="http://www.w3.org/2000/svg">
<path d="M0.0157471 231.503V575.785C0.0157471 625.609 45.0621 666 100.63 666H1205.71C1261.28 666 1306.33 625.609 1306.33 575.785V256.274H1225.86C1214.6 256.274 1204.44 252.037 1197.25 245.244C1190.07 252.037 1179.91 256.274 1168.65 256.274H1074.31C1052.56 256.274 1034.93 240.471 1034.93 220.967V141.287H100.614C45.0463 141.287 0 181.678 0 231.503H0.0157471ZM1229.53 4.96161C1232.66 0.484728 1239.01 -1.22412 1244.38 0.936644C1276.37 13.8589 1300.12 33.2916 1314.96 58.6418C1326.42 77.9051 1332 107.351 1332 148.659V220.982C1332 226.828 1326.71 231.574 1320.19 231.574H1225.84C1219.32 231.574 1214.03 226.828 1214.03 220.982V129.368C1214.03 123.521 1219.32 118.776 1225.84 118.776H1259.28C1257.63 100.558 1253.63 86.3786 1247.36 76.5493C1240.14 65.237 1229.05 56.8906 1213.46 51.0438C1210.26 49.8434 1207.81 47.4425 1206.75 44.4768C1205.7 41.511 1206.17 38.2769 1208.01 35.636L1229.53 4.96161ZM1056.48 35.636L1077.99 4.96161C1081.13 0.484728 1087.47 -1.23824 1092.84 0.936644C1124.83 13.8589 1148.59 33.2916 1163.42 58.6418C1174.89 77.9051 1180.46 107.351 1180.46 148.659V220.982C1180.46 226.828 1175.17 231.574 1168.65 231.574H1074.31C1067.79 231.574 1062.49 226.828 1062.49 220.982V129.368C1062.49 123.521 1067.79 118.776 1074.31 118.776H1107.74C1106.09 100.558 1102.09 86.3786 1095.82 76.5493C1088.61 65.237 1077.52 56.8906 1061.93 51.0438C1058.73 49.8434 1056.27 47.4425 1055.22 44.4768C1054.16 41.511 1054.63 38.2769 1056.48 35.636Z" fill="white" fill-opacity="0.1"/>
</svg>
